<?xml version="1.0" encoding="UTF-8" standalone="no"?>
<!-- Created with Inkscape (http://www.inkscape.org/) -->

<svg
   version="1.1"
   fill="#f0f0f0"
   id="svg1743"
   xml:space="preserve"
   width="682.66669"
   height="682.66669"
   viewBox="0 0 682.66669 682.66669"
   xmlns="http://www.w3.org/2000/svg"
   xmlns:svg="http://www.w3.org/2000/svg"><defs
     id="defs1747"><clipPath
       clipPathUnits="userSpaceOnUse"
       id="clipPath1757"><path
         d="M 0,512 H 512 V 0 H 0 Z"
         id="path1755" /></clipPath></defs><g
     id="g1749"
     transform="matrix(1.3333333,0,0,-1.3333333,0,682.66667)"><g
       id="g1751"><g
         id="g1753"
         clip-path="url(#clipPath1757)"><g
           id="g1759"
           transform="translate(39.939,366.542)"><path
             d="m 0,0 h 106.851 v 31.883 c 0,10.055 -8.151,18.206 -18.205,18.206 H 18.206 C 8.151,50.089 0,41.938 0,31.883 Z"
             style="fill:none;stroke:#f0f0f0;stroke-width:15;stroke-linecap:round;stroke-linejoin:round;stroke-miterlimit:10;stroke-dasharray:none;stroke-opacity:1"
             id="path1761" /></g><path
           d="m 76.251,475.515 h 34.226 V 416.631 H 76.251 Z"
           style="fill:none;stroke:#f0f0f0;stroke-width:15;stroke-linecap:round;stroke-linejoin:round;stroke-miterlimit:10;stroke-dasharray:none;stroke-opacity:1"
           id="path1763" /><g
           id="g1765"
           transform="translate(191.1694,451.5547)"><path
             d="m 0,0 -26.114,23.957 h -118.625 c -3.585,0 -6.491,2.906 -6.491,6.491 v 16.006 c 0,3.585 2.906,6.491 6.491,6.491 h 124.266 c 3.629,0 7.125,-1.361 9.798,-3.813 l 30.271,-27.77 c 2.642,-2.424 2.819,-6.53 0.396,-9.172 L 9.171,0.396 C 6.748,-2.247 2.642,-2.423 0,0 Z"
             style="fill:none;stroke:#f0f0f0;stroke-width:15;stroke-linecap:round;stroke-linejoin:round;stroke-miterlimit:10;stroke-dasharray:none;stroke-opacity:1"
             id="path1767" /></g><g
           id="g1769"
           transform="translate(19.7637,220.7852)"><path
             d="m 0,0 v 126.797 c 0,10.471 8.494,18.964 18.964,18.964 H 128.24 c 10.47,0 18.964,-8.493 18.964,-18.964 v -321.118 c 0,-10.471 -8.494,-18.964 -18.964,-18.964 H 18.964 C 8.494,-213.285 0,-204.792 0,-194.321 v 158.964"
             style="fill:none;stroke:#f0f0f0;stroke-width:15;stroke-linecap:round;stroke-linejoin:round;stroke-miterlimit:10;stroke-dasharray:none;stroke-opacity:1"
             id="path1771" /></g><path
           d="M 166.967,220.785 H 19.763 v 56.045 h 147.204 z"
           style="fill:none;stroke:#f0f0f0;stroke-width:15;stroke-linecap:round;stroke-linejoin:round;stroke-miterlimit:10;stroke-dasharray:none;stroke-opacity:1"
           id="path1773" /><g
           id="g1775"
           transform="translate(438.9253,44.4263)"><path
             d="m 0,0 h -187.611 c -11.449,0 -20.729,9.281 -20.729,20.729 v 0.661 c 0,30.357 24.609,54.966 54.966,54.966 h 119.137 c 30.357,0 54.966,-24.609 54.966,-54.966 V 20.729 C 20.729,9.281 11.449,0 0,0 Z"
             style="fill:none;stroke:#f0f0f0;stroke-width:15;stroke-linecap:round;stroke-linejoin:round;stroke-miterlimit:10;stroke-dasharray:none;stroke-opacity:1"
             id="path1777" /></g><g
           id="g1779"
           transform="translate(477.1963,44.4263)"><path
             d="m 0,0 h -264.152 c -8.307,0 -15.04,-6.734 -15.04,-15.04 v -6.727 c 0,-8.307 6.733,-15.04 15.04,-15.04 H 0 c 8.306,0 15.04,6.733 15.04,15.04 v 6.727 C 15.04,-6.734 8.306,0 0,0 Z"
             style="fill:none;stroke:#f0f0f0;stroke-width:15;stroke-linecap:round;stroke-linejoin:round;stroke-miterlimit:10;stroke-dasharray:none;stroke-opacity:1"
             id="path1781" /></g><g
           id="g1783"
           transform="translate(198.0039,29.3862)"><path
             d="m 0,0 v 265.231 c 0,10.471 8.493,18.964 18.964,18.964 h 109.275 c 10.471,0 18.964,-8.493 18.964,-18.964 V 124.369"
             style="fill:none;stroke:#f0f0f0;stroke-width:15;stroke-linecap:round;stroke-linejoin:round;stroke-miterlimit:10;stroke-dasharray:none;stroke-opacity:1"
             id="path1785" /></g><g
           id="g1787"
           transform="translate(326.2432,313.5815)"><path
             d="m 0,0 h -109.275 v 23.801 c 0,7.494 6.074,13.569 13.568,13.569 h 82.138 C -6.075,37.37 0,31.295 0,23.801 Z"
             style="fill:none;stroke:#f0f0f0;stroke-width:15;stroke-linecap:round;stroke-linejoin:round;stroke-miterlimit:10;stroke-dasharray:none;stroke-opacity:1"
             id="path1789" /></g><g
           id="g1791"
           transform="translate(265.0757,214.2559)"><path
             d="M 0,0 13.06,13.059"
             style="fill:none;stroke:#f0f0f0;stroke-width:15;stroke-linecap:round;stroke-linejoin:round;stroke-miterlimit:10;stroke-dasharray:none;stroke-opacity:1"
             id="path1793" /></g><g
           id="g1795"
           transform="translate(315.5293,220.7852)"><path
             d="m 0,0 c 0,-24.258 -19.666,-43.924 -43.924,-43.924 -24.258,0 -43.924,19.666 -43.924,43.924 0,24.259 19.666,43.924 43.924,43.924 C -19.666,43.924 0,24.259 0,0 Z"
             style="fill:none;stroke:#f0f0f0;stroke-width:15;stroke-linecap:round;stroke-linejoin:round;stroke-miterlimit:10;stroke-dasharray:none;stroke-opacity:1"
             id="path1797" /></g><g
           id="g1799"
           transform="translate(469.4316,504.5)"><path
             d="M 0,0 V -31.292"
             style="fill:none;stroke:#f0f0f0;stroke-width:15;stroke-linecap:round;stroke-linejoin:round;stroke-miterlimit:10;stroke-dasharray:none;stroke-opacity:1"
             id="path1801" /></g><g
           id="g1803"
           transform="translate(485.0776,488.854)"><path
             d="M 0,0 H -31.292"
             style="fill:none;stroke:#f0f0f0;stroke-width:15;stroke-linecap:round;stroke-linejoin:round;stroke-miterlimit:10;stroke-dasharray:none;stroke-opacity:1"
             id="path1805" /></g><g
           id="g1807"
           transform="translate(403.1929,434.8486)"><path
             d="m 0,0 h -16.946 v 16.946 c 0,7.585 -6.149,13.735 -13.735,13.735 -7.585,0 -13.735,-6.15 -13.735,-13.735 V 0 h -16.945 c -7.586,0 -13.735,-6.149 -13.735,-13.735 0,-7.585 6.149,-13.735 13.735,-13.735 h 16.945 v -16.946 c 0,-7.585 6.15,-13.734 13.735,-13.734 7.586,0 13.735,6.149 13.735,13.734 V -27.47 H 0 c 7.585,0 13.735,6.15 13.735,13.735 C 13.735,-6.149 7.585,0 0,0 Z"
             style="fill:none;stroke:#f0f0f0;stroke-width:15;stroke-linecap:round;stroke-linejoin:round;stroke-miterlimit:10;stroke-dasharray:none;stroke-opacity:1"
             id="path1809" /></g></g></g></g></svg>
