<svg id="Capa_1" fill="#f0f0f0" enable-background="new 0 0 512 512" height="512" viewBox="0 0 512 512" width="512" xmlns="http://www.w3.org/2000/svg"><g><path d="m452.021 399.437c4.723-19.249-.418-40.444-15.426-55.453-19.204-19.204-48.537-22.249-70.96-9.148v-121.892c0-10.853-4.696-21.164-12.884-28.29l-68.619-59.709v-19.372h13.534c12.407 0 22.5-10.094 22.5-22.5v-45.573c0-20.678-16.822-37.5-37.5-37.5h-175.615c-20.678 0-37.5 16.822-37.5 37.5v45.573c0 12.406 10.093 22.5 22.5 22.5h13.533v19.372l-68.619 59.71c-8.187 7.125-12.883 17.437-12.883 28.289v241.556c0 20.678 16.822 37.5 37.5 37.5h61.179c4.142 0 7.5-3.357 7.5-7.5s-3.358-7.5-7.5-7.5h-61.178c-12.407 0-22.5-10.094-22.5-22.5v-241.556c0-6.512 2.817-12.699 7.73-16.974l69.079-60.109h21.872c4.142 0 7.5-3.357 7.5-7.5s-3.358-7.5-7.5-7.5h-17.179v-15.288h148.548v15.288h-101.367c-4.142 0-7.5 3.357-7.5 7.5s3.358 7.5 7.5 7.5h106.06l69.079 60.108c4.913 4.276 7.73 10.463 7.73 16.975v134.186l-34.791 34.791v-128.883c0-20.678-16.822-37.5-37.5-37.5h-18.986c-4.142 0-7.5 3.357-7.5 7.5s3.358 7.5 7.5 7.5h18.986c12.407 0 22.5 10.094 22.5 22.5v143.882l-15.113 15.113c-5.085 5.086-9.106 10.948-11.981 17.312h-162.377c-12.407 0-22.5-10.094-22.5-22.5v-153.807c0-12.406 10.093-22.5 22.5-22.5h117.983c4.142 0 7.5-3.357 7.5-7.5s-3.358-7.5-7.5-7.5h-117.983c-20.678 0-37.5 16.822-37.5 37.5v153.807c0 20.678 16.822 37.5 37.5 37.5h157.914c-.463 2.983-.707 6.02-.707 9.096 0 8.249 1.71 16.229 4.932 23.56h-120.747c-4.142 0-7.5 3.357-7.5 7.5s3.358 7.5 7.5 7.5h130.319c.852.971 1.726 1.927 2.648 2.849 11.059 11.06 25.763 17.15 41.403 17.151h.002 102.222c32.289 0 58.559-26.27 58.559-58.559-.001-23.786-14.428-44.996-35.897-54.005zm-367.47-316.364v-45.573c0-11.913 9.308-21.688 21.033-22.447v53.02c0 4.143 3.358 7.5 7.5 7.5s7.5-3.357 7.5-7.5v-53.073h23.774v53.073c0 4.143 3.358 7.5 7.5 7.5s7.5-3.357 7.5-7.5v-53.073h28v53.073c0 4.143 3.358 7.5 7.5 7.5s7.5-3.357 7.5-7.5v-53.073h28v53.073c0 4.143 3.358 7.5 7.5 7.5s7.5-3.357 7.5-7.5v-53.073h23.774v53.073c0 4.143 3.358 7.5 7.5 7.5s7.5-3.357 7.5-7.5v-53.02c11.725.759 21.034 10.534 21.034 22.447v45.573c0 4.136-3.364 7.5-7.5 7.5h-205.615c-4.135 0-7.5-3.364-7.5-7.5zm341.438 271.518c16.983 16.984 16.983 44.619 0 61.603l-28.721 28.721-61.602-61.602 28.721-28.721c8.493-8.493 19.645-12.738 30.801-12.738 11.153 0 22.31 4.247 30.801 12.737zm-142.408 98.849c0-11.635 4.531-22.573 12.758-30.8l28.721-28.721 61.602 61.602-28.721 28.721c-8.228 8.227-19.167 12.758-30.802 12.758s-22.573-4.531-30.801-12.759c-8.227-8.226-12.757-19.165-12.757-30.801zm145.778 43.56h-63.086c.773-.696 1.533-1.411 2.273-2.151l68.049-68.049c4.057-4.057 7.378-8.572 9.994-13.372 15.762 6.788 26.329 22.456 26.329 40.014-.001 24.018-19.541 43.558-43.559 43.558z"/><path d="m177.359 402.441h35c8.271 0 15-6.729 15-15v-25h25c8.271 0 15-6.729 15-15v-35c0-8.271-6.729-15-15-15h-25v-25c0-8.271-6.729-15-15-15h-35c-8.271 0-15 6.729-15 15v25h-25c-8.271 0-15 6.729-15 15v35c0 8.271 6.729 15 15 15h25v25c0 8.272 6.729 15 15 15zm-40-55v-35h32.5c4.142 0 7.5-3.357 7.5-7.5v-32.5h35v32.5c0 4.143 3.358 7.5 7.5 7.5h32.5v35h-32.5c-4.142 0-7.5 3.357-7.5 7.5v32.5h-35v-32.5c0-4.143-3.358-7.5-7.5-7.5z"/></g></svg>