<svg fill="#f0f0f0" height="512pt" viewBox="-5 0 512 512" width="512pt" xmlns="http://www.w3.org/2000/svg"><path d="m484.144531 250.898438c-5.742187-9.894532-12.429687-17.777344-19.769531-23.453126v-27.011718c0-9.984375-8.121094-18.105469-18.105469-18.105469h-3.464843v-22.488281c0-66.613282-54.195313-120.808594-120.808594-120.808594h-76.183594v-20.921875c0-9.984375-8.121094-18.109375-18.109375-18.109375h-60.804687c-9.984376 0-18.109376 8.125-18.109376 18.109375v15.191406c0 4.140625 3.359376 7.5 7.5 7.5 4.140626 0 7.5-3.359375 7.5-7.5v-15.191406c0-1.714844 1.394532-3.109375 3.109376-3.109375h60.804687c1.714844 0 3.109375 1.394531 3.109375 3.109375v66.011719h-67.023438v-15.425782c0-4.140624-3.359374-7.5-7.5-7.5-4.140624 0-7.5 3.359376-7.5 7.5v15.425782h-19.707031c-9.984375 0-18.109375 8.125-18.109375 18.109375v65.15625c-65.644531 32.078125-110.972656 99.535156-110.972656 177.382812 0 31.699219 7.699219 63.210938 22.265625 91.132813 14.09375 27.015625 34.613281 50.769531 59.335937 68.699218 6.679688 4.839844 14.625 7.398438 22.980469 7.398438h185.4375c8.355469 0 16.300781-2.558594 22.972657-7.398438 24.800781-17.980468 45.363281-41.816406 59.464843-68.933593 5.394531-10.371094 9.832031-21.238281 13.289063-32.425781 12.503906 22.371093 30.164062 35.207031 49.554687 35.207031 15.863281 0 31.1875-8.96875 43.144531-25.25 2.453126-3.339844 1.734376-8.035157-1.605468-10.484375-3.339844-2.453125-8.03125-1.734375-10.484375 1.605468-6.40625 8.726563-16.996094 19.128907-31.054688 19.128907-17.363281 0-34.042969-16.734375-43.8125-43.800781 2.09375-11.671876 3.144531-23.542969 3.113281-35.445313-.054687-18.4375-2.609374-36.476563-7.488281-53.722656 8.292969-35.105469 27.507813-58.5625 48.1875-58.5625 28.402344 0 52.398438 43.855469 52.398438 95.761719 0 16.359374-2.355469 32.527343-6.816407 46.757812-1.238281 3.953125.964844 8.160156 4.914063 9.398438.75.234374 1.503906.34375 2.246094.34375 3.191406 0 6.148437-2.050782 7.15625-5.257813 4.90625-15.660156 7.5-33.378906 7.5-51.242187.003906-28.882813-6.589844-56.152344-18.554688-76.78125zm-215.515625-90.273438c-6.695312-2.578125-13.542968-4.777344-20.511718-6.613281v-54.890625h17.402343c1.714844 0 3.109375 1.394531 3.109375 3.109375zm-78.828125-61.503906v48.503906c-9.628906.363281-19.085937 1.410156-28.316406 3.109375v-51.613281zm15 0h28.316407v51.5625c-9.28125-1.679688-18.734376-2.707032-28.316407-3.0625zm-78.828125 3.109375c0-1.714844 1.394532-3.109375 3.109375-3.109375h17.402344v54.996094c-6.996094 1.867187-13.84375 4.105468-20.515625 6.699218v-58.585937zm233.175782 326.519531c-13.03125 25.058594-32.035157 47.089844-54.957032 63.707031-4.101562 2.972657-9 4.542969-14.167968 4.542969h-185.441407c-5.171875 0-10.074219-1.570312-14.171875-4.542969-22.855468-16.570312-41.820312-38.523437-54.84375-63.492187-13.453125-25.785156-20.566406-54.898438-20.566406-84.191406 0-100.523438 81.78125-182.300782 182.300781-182.300782 48.746094 0 94.5 18.855469 128.839844 53.09375 34.339844 34.238282 53.324219 79.9375 53.460937 128.683594.082032 29.390625-6.992187 58.609375-20.453124 84.5zm19.609374-161.890625c-9.78125-22.875-23.925781-43.871094-42.027343-61.917969-15.71875-15.675781-33.652344-28.355468-53.101563-37.789062v-64.921875c0-9.984375-8.121094-18.109375-18.105468-18.109375h-19.710938v-30.089844h76.183594c58.34375 0 105.808594 47.464844 105.808594 105.808594v22.488281h-3.460938c-9.984375 0-18.109375 8.121094-18.109375 18.105469v26.992187c-11.171875 8.601563-20.6875 22.152344-27.476563 39.433594zm42.476563-47.585937v-18.839844c0-1.710938 1.394531-3.105469 3.109375-3.105469h21.925781c1.714844 0 3.105469 1.394531 3.105469 3.105469v18.820312c-4.558594-1.539062-9.269531-2.335937-14.074219-2.335937-4.816406 0-9.519531.820312-14.066406 2.355469zm0 0"/><path d="m262.546875 286.5c0 4.140625 3.359375 7.5 7.5 7.5h66.675781c1.332032 0 2.519532.855469 2.957032 2.125 5.371093 15.652344 8.09375 32.019531 8.09375 48.644531 0 46.605469-21.15625 89.851563-58.046876 118.65625-.566406.441407-1.265624.6875-1.960937.6875h-180.933594c-.695312 0-1.390625-.246093-1.957031-.6875-36.890625-28.800781-58.046875-72.050781-58.046875-118.65625 0-16.628906 2.722656-32.996093 8.09375-48.644531.4375-1.269531 1.625-2.125 2.957031-2.125h176.773438c4.140625 0 7.5-3.359375 7.5-7.5s-3.359375-7.5-7.5-7.5h-176.773438c-7.738281 0-14.628906 4.925781-17.144531 12.253906-5.910156 17.222656-8.90625 35.226563-8.90625 53.515625 0 51.257813 23.261719 98.8125 63.816406 130.480469 3.191407 2.488281 7.164063 3.859375 11.1875 3.859375h180.933594c4.023437 0 8-1.371094 11.1875-3.863281 40.558594-31.664063 63.820313-79.222656 63.820313-130.476563 0-18.285156-2.996094-36.289062-8.90625-53.515625-2.515626-7.332031-9.40625-12.253906-17.148438-12.253906h-66.671875c-4.140625 0-7.5 3.355469-7.5 7.5zm0 0"/><path d="m194.136719 51.28125v-.121094c0-4.144531-3.355469-7.5-7.5-7.5-4.140625 0-7.5 3.355469-7.5 7.5v.121094c0 4.144531 3.359375 7.5 7.5 7.5 4.144531 0 7.5-3.355469 7.5-7.5zm0 0"/><path d="m25.285156 60.230469c12.679688 4.496093 22.699219 14.824219 26.804688 27.632812 1.269531 3.957031 4.90625 6.613281 9.050781 6.613281s7.78125-2.660156 9.046875-6.613281c4.109375-12.808593 14.128906-23.136719 26.808594-27.632812 3.769531-1.335938 6.304687-4.933594 6.304687-8.949219s-2.535156-7.613281-6.308593-8.949219c-12.675782-4.496093-22.695313-14.824219-26.804688-27.632812-1.269531-3.957031-4.90625-6.613281-9.046875-6.613281-4.144531 0-7.78125 2.65625-9.050781 6.613281-4.109375 12.808593-14.128906 23.136719-26.804688 27.632812-3.773437 1.335938-6.308594 4.933594-6.308594 8.949219.003907 4.015625 2.539063 7.613281 6.308594 8.949219zm35.855469-29.28125c4.878906 8.292969 11.769531 15.304687 19.976563 20.332031-8.207032 5.027344-15.097657 12.039062-19.976563 20.332031-4.882813-8.292969-11.773437-15.304687-19.980469-20.332031 8.207032-5.027344 15.097656-12.039062 19.980469-20.332031zm0 0"/></svg>