<?xml version="1.0" encoding="UTF-8"?>
<svg fill="#f0f0f0" xmlns="http://www.w3.org/2000/svg" id="Layer_1" data-name="Layer 1" viewBox="0 0 512 512" width="512" height="512"><path d="M234.652,375.354H101.361a6,6,0,1,0,0,12H234.652a6,6,0,0,0,0-12Z"/><path d="M205.394,410.709H130.619a6,6,0,1,0,0,12h74.775a6,6,0,1,0,0-12Z"/><path d="M216.87,232.861a14.191,14.191,0,0,0-12.768-8.078h-6.663a14.182,14.182,0,0,0-14.166,14.166v3.409H153.761v-3.409A14.182,14.182,0,0,0,139.6,224.783h-6.663a14.191,14.191,0,0,0-12.768,8.078h-2.993a16.227,16.227,0,0,0-16.209,16.209v18.551a16.226,16.226,0,0,0,16.209,16.208h2.742a14.12,14.12,0,0,0,12.782,8.079h6.9a14.182,14.182,0,0,0,14.166-14.167v-2.07h29.512v2.07a14.182,14.182,0,0,0,14.166,14.167h6.9a14.12,14.12,0,0,0,12.782-8.079h2.742a16.226,16.226,0,0,0,16.209-16.208V249.07a16.227,16.227,0,0,0-16.209-16.209Zm-98.306,38.968h-1.393a4.213,4.213,0,0,1-4.209-4.208V249.07a4.214,4.214,0,0,1,4.209-4.209h1.558Zm23.2,5.912a2.168,2.168,0,0,1-2.166,2.167h-6.9a2.165,2.165,0,0,1-2.166-2.18l.236-38.792a2.171,2.171,0,0,1,2.167-2.153H139.6a2.168,2.168,0,0,1,2.166,2.166Zm41.512-14.07H153.761v-9.313h29.512Zm22.6,15.6a2.156,2.156,0,0,1-1.537.639h-6.9a2.169,2.169,0,0,1-2.166-2.167V238.949a2.168,2.168,0,0,1,2.166-2.166H204.1a2.171,2.171,0,0,1,2.167,2.153l.236,38.793A2.156,2.156,0,0,1,205.876,279.269Zm18.2-30.2v18.551a4.213,4.213,0,0,1-4.209,4.208H218.47l-.164-26.968h1.557A4.214,4.214,0,0,1,224.072,249.07Z"/><path d="M41,223.129a6,6,0,0,0-6,6v2.062a6,6,0,1,0,12,0v-2.062A6,6,0,0,0,41,223.129Z"/><path d="M41,243.485a6,6,0,0,0-6,6v77.176a6,6,0,0,0,12,0V249.485A6,6,0,0,0,41,243.485Z"/><path d="M484.017,419.058H345.388a45.376,45.376,0,0,0-14.375-27.5V177.192c0-27.911-21.009-50.618-46.833-50.618h-2.131V95.082h19.385a16.019,16.019,0,0,0,16-16v-34.5A39.628,39.628,0,0,0,277.851,5H59.183A39.627,39.627,0,0,0,19.6,44.583v34.5a16.018,16.018,0,0,0,16,16H54.985v31.492H52.854c-25.824,0-46.833,22.707-46.833,50.618V462.637C6.021,487.1,24.462,507,47.13,507H331.368a18.032,18.032,0,0,0,17.552-14.2l6.364-29.856H484.017a21.945,21.945,0,1,0,0-43.89Zm-150.769,0H267.384a33.477,33.477,0,0,1,65.864,0ZM31.6,44.583A27.613,27.613,0,0,1,59.183,17H277.851a27.614,27.614,0,0,1,27.583,27.583v4.562H31.6Zm4,38.5a4,4,0,0,1-4-4V61.145H305.434V79.082a4.005,4.005,0,0,1-4,4Zm-17.58,94.11c0-21.294,15.626-38.618,34.833-38.618H79.962a6,6,0,0,0,0-12H66.985V95.082H270.049v31.492H121.962a6,6,0,1,0,0,12H284.18c19.207,0,34.833,17.324,34.833,38.618v22.975H240.176a92.228,92.228,0,0,0-143.318,0H18.021Zm230.842,81.154A80.346,80.346,0,1,1,168.517,178,80.437,80.437,0,0,1,248.863,258.346ZM18.021,212.167H88.57a92.346,92.346,0,1,0,159.894,0h70.549V383.628a45.454,45.454,0,0,0-63.769,35.43h-4.993a6,6,0,0,0-5.868,7.251l3.989,18.711H18.021ZM47.13,495c-16.051,0-29.109-14.519-29.109-32.363V457.02H250.93l7.629,35.784a17.53,17.53,0,0,0,.636,2.2Zm290.054-4.7a5.973,5.973,0,0,1-5.816,4.7H276.111a5.972,5.972,0,0,1-5.816-4.7l-12.63-59.244h92.148Zm146.833-39.354H357.843l4.24-19.89H484.017a9.945,9.945,0,1,1,0,19.89Z"/></svg>
