<?xml version="1.0" encoding="UTF-8"?>
<svg xmlns="http://www.w3.org/2000/svg" xmlns:xlink="http://www.w3.org/1999/xlink" version="1.1" id="Capa_1" x="0px" y="0px" viewBox="0 0 512.003 512.003" style="enable-background:new 0 0 512.003 512.003;" xml:space="preserve" width="512" height="512">
<g>
	<path style="fill:none;stroke:#f0f0f0;stroke-width:15;stroke-linecap:round;stroke-linejoin:round;stroke-miterlimit:10;" d="&#10;&#9;&#9;M454.677,233.602H271.855c-9.831,0-17.801-7.97-17.801-17.801v-50.488c0-9.831,7.97-17.801,17.801-17.801h182.822&#10;&#9;&#9;c9.831,0,17.801,7.97,17.801,17.801v50.488C472.479,225.632,464.509,233.602,454.677,233.602z"/>
	<path style="fill:none;stroke:#f0f0f0;stroke-width:15;stroke-linecap:round;stroke-linejoin:round;stroke-miterlimit:10;" d="&#10;&#9;&#9;M453.156,504.503h-179.78c-28.114,0-50.906-22.791-50.906-50.906V284.508c0-28.114,22.791-50.906,50.906-50.906h179.78&#10;&#9;&#9;c28.114,0,50.906,22.791,50.906,50.906v169.089C504.062,481.711,481.271,504.503,453.156,504.503z"/>
	<path style="fill:none;stroke:#f0f0f0;stroke-width:15;stroke-linecap:round;stroke-linejoin:round;stroke-miterlimit:10;" d="&#10;&#9;&#9;M222.471,372.993c-6.27-2.14-12.49-3.79-18.48-3.79c-19.96,0-42.58,18.32-60.59,12.47c-18.67-6.06-26.16-34.39-41.7-45.69&#10;&#9;&#9;c-15.69-11.43-44.9-9.87-56.33-25.57c-11.3-15.54-0.88-42.78-6.94-61.45c-5.85-18.01-30.49-33.84-30.49-53.8&#10;&#9;&#9;s24.64-35.79,30.49-53.8c6.06-18.67-4.36-45.91,6.94-61.45c11.43-15.69,40.64-14.14,56.33-25.57c15.54-11.3,23.03-39.63,41.7-45.69&#10;&#9;&#9;c18.01-5.85,40.63,12.47,60.59,12.47c19.97,0,42.59-18.32,60.6-12.47c18.67,6.06,26.16,34.39,41.7,45.69&#10;&#9;&#9;c15.69,11.43,44.9,9.88,56.32,25.57c11.31,15.54,0.89,42.78,6.95,61.45c0.67,2.08,1.6,4.12,2.71,6.15"/>
	<path style="fill:none;stroke:#f0f0f0;stroke-width:15;stroke-linecap:round;stroke-linejoin:round;stroke-miterlimit:10;" d="&#10;&#9;&#9;M99.144,99.232c25.983-28.382,63.338-46.18,104.847-46.18c61.77,0,114.34,39.41,133.93,94.46"/>
	<path style="fill:none;stroke:#f0f0f0;stroke-width:15;stroke-linecap:round;stroke-linejoin:round;stroke-miterlimit:10;" d="&#10;&#9;&#9;M222.471,336.093c-6.05,0.78-12.22,1.19-18.48,1.19c-78.48,0-142.11-63.63-142.11-142.12c0-24.264,6.081-47.106,16.801-67.088"/>
	
		<polyline style="fill:none;stroke:#f0f0f0;stroke-width:15;stroke-linecap:round;stroke-linejoin:round;stroke-miterlimit:10;" points="&#10;&#9;&#9;445.961,434.361 504.062,434.361 504.062,303.744 222.47,303.744 222.47,434.361 410.961,434.361 &#9;"/>
	
		<line style="fill:none;stroke:#f0f0f0;stroke-width:15;stroke-linecap:round;stroke-linejoin:round;stroke-miterlimit:10;" x1="339.745" y1="334.888" x2="339.745" y2="402.176"/>
	<path style="fill:none;stroke:#f0f0f0;stroke-width:15;stroke-linecap:round;stroke-linejoin:round;stroke-miterlimit:10;" d="&#10;&#9;&#9;M386.788,369.052c0,18.866-10.471,33.794-27.083,34.085c-5.53,0.097-19.821,0.151-19.821,0.151s-0.089-24.801-0.089-34.311&#10;&#9;&#9;c0-7.81-0.05-34.16-0.05-34.16s12.857,0,19.392,0C377.358,334.817,386.788,350.186,386.788,369.052z"/>
</g>















</svg>
