<svg xmlns="http://www.w3.org/2000/svg" version="1.1" xmlns:xlink="http://www.w3.org/1999/xlink" width="512" height="512" x="0" y="0" viewBox="0 0 64 64" style="enable-background:new 0 0 512 512" xml:space="preserve" class=""><g><path d="M38.222 21.778h-4v-4a2.222 2.222 0 0 0-4.444 0v4h-4a2.222 2.222 0 1 0 0 4.444h4v4a2.222 2.222 0 0 0 4.444 0v-4h4a2.222 2.222 0 0 0 0-4.444z" fill="#ed1c24" opacity="1" data-original="#000000" class=""></path><path d="M35.072 4.181A25.225 25.225 0 0 0 32 4v.01a25.225 25.225 0 0 0-3.072.181C18.749 5.439 12 15.017 12 24.671c0 6.237 3.126 11.993 6.319 17.321a148.248 148.248 0 0 0 10.806 15.413c.731.927 1.726 2.523 2.875 2.595v-.01c1.149-.072 2.144-1.668 2.875-2.595a148.248 148.248 0 0 0 10.806-15.413C48.874 36.654 52 30.9 52 24.661c0-9.654-6.749-19.232-16.928-20.48zM32 36a12 12 0 1 1 12-12 12 12 0 0 1-12 12z" fill="#ed1c24" opacity="1" data-original="#000000" class=""></path></g></svg>