<svg xmlns="http://www.w3.org/2000/svg" version="1.1" xmlns:xlink="http://www.w3.org/1999/xlink" width="512" height="512" x="0" y="0" viewBox="0 0 64 64" style="enable-background:new 0 0 512 512" xml:space="preserve" class=""><g><path d="M45 3H19a1 1 0 0 0-1 1v20a1 1 0 0 0 1 1h26a1 1 0 0 0 1-1V4a1 1 0 0 0-1-1zm-6 13a1 1 0 0 1-1 1h-3v3a1 1 0 0 1-1 1h-4a1 1 0 0 1-1-1v-3h-3a1 1 0 0 1-1-1v-4a1 1 0 0 1 1-1h3V8a1 1 0 0 1 1-1h4a1 1 0 0 1 1 1v3h3a1 1 0 0 1 1 1zM50.36 38A8.32 8.32 0 0 1 45 36.06 8.32 8.32 0 0 1 39.64 38c-1.26-.14-4.56.64-7.64-1.94A8.32 8.32 0 0 1 26.64 38c-1.26-.14-4.56.64-7.64-1.94-3.08 2.58-6.38 1.8-7.64 1.94A8.36 8.36 0 0 1 8 37.29V60a1 1 0 0 0 1 1h5V43a1 1 0 0 1 1-1h13a1 1 0 0 1 1 1v18h26a1 1 0 0 0 1-1V37.29c-2.31 1.02-4 .62-5.64.71zM49 54a1 1 0 0 1-1 1H34a1 1 0 0 1-1-1V43a1 1 0 0 1 1-1h14a1 1 0 0 1 1 1zM18 26.82A3 3 0 0 1 16 24V13H9a1 1 0 0 0-1 .81L5 29.45a1.37 1.37 0 0 0 0 .19A6.36 6.36 0 0 0 11.36 36h2.28A6.35 6.35 0 0 0 18 34.27zM31 27H20v7.27A6.35 6.35 0 0 0 24.36 36h2.28A6.35 6.35 0 0 0 31 34.27zM44 27H33v7.27A6.35 6.35 0 0 0 37.36 36h2.28A6.35 6.35 0 0 0 44 34.27zM59 29.45l-3-15.64a1 1 0 0 0-1-.81h-7v11a3 3 0 0 1-2 2.82v7.45A6.35 6.35 0 0 0 50.36 36h2.28A6.36 6.36 0 0 0 59 29.64a1.37 1.37 0 0 0 0-.19z" fill="#ed1c24" opacity="1" data-original="#000000" class=""></path></g></svg>