<svg xmlns="http://www.w3.org/2000/svg" version="1.1" xmlns:xlink="http://www.w3.org/1999/xlink" width="512" height="512" x="0" y="0" viewBox="0 0 512.156 512.156" style="enable-background:new 0 0 512 512" xml:space="preserve" class=""><g><path d="M240 405.751c0 42.282-19.544 80.08-50.066 104.852 29.754 1.405 58.463-9.756 79.312-30.605l95.46-95.46L240 259.832zM481.379 119.373c-40.94-40.939-107.553-40.939-148.492 0L240 212.259v5.147l145.919 145.918 95.46-95.459c41.034-41.034 41.038-107.454 0-148.492z" fill="#ed1c24" opacity="1" data-original="#000000" class=""></path><path d="M210 270.751H0v135c5.296 139.141 204.755 139.035 210 0zM210 105.751c-5.296-139.141-204.754-139.035-210 0v135h210z" fill="#ed1c24" opacity="1" data-original="#000000" class=""></path></g></svg>