<svg enable-background="new 0 0 512 512" height="512" viewBox="0 0 512 512" width="512" xmlns="http://www.w3.org/2000/svg"><g id="_x30_8_Bank_Cards"><g><path d="m482.248 93.049h-452.496c-15.943 0-28.939 12.943-28.939 28.939v268.025c0 15.995 12.996 28.939 28.939 28.939h452.496c15.943 0 28.939-12.943 28.939-28.939v-268.025c0-15.996-12.996-28.939-28.939-28.939zm-90.459 187.401h9.398c4.357 0 7.892 3.533 7.892 7.892 0 4.36-3.535 7.892-7.892 7.892h-9.398c-4.357 0-7.892-3.533-7.892-7.892-.001-4.359 3.535-7.892 7.892-7.892zm-33.923 0h9.398c4.357 0 7.892 3.533 7.892 7.892 0 4.36-3.535 7.892-7.892 7.892h-9.398c-4.357 0-7.892-3.533-7.892-7.892s3.535-7.892 7.892-7.892zm-72.64 0h9.398c4.357 0 7.892 3.533 7.892 7.892 0 4.36-3.535 7.892-7.892 7.892h-9.398c-4.357 0-7.892-3.533-7.892-7.892s3.535-7.892 7.892-7.892zm-208.323-142.494h175.212c4.36 0 7.892 3.533 7.892 7.892s-3.533 7.892-7.892 7.892h-175.212c-4.36 0-7.892-3.533-7.892-7.892s3.532-7.892 7.892-7.892zm82.984 61.269v40.511c0 5.995-4.86 10.855-10.855 10.855h-67.04c-5.995 0-10.855-4.86-10.855-10.855v-40.511c0-5.995 4.86-10.855 10.855-10.855h67.041c5.994 0 10.854 4.86 10.854 10.855zm-73.599 97.01h-9.4c-4.36 0-7.892-3.533-7.892-7.892 0-4.36 3.533-7.892 7.892-7.892h9.4c4.36 0 7.892 3.533 7.892 7.892.001 4.36-3.532 7.892-7.892 7.892zm33.923 0h-9.398c-4.36 0-7.892-3.533-7.892-7.892 0-4.36 3.533-7.892 7.892-7.892h9.398c4.36 0 7.892 3.533 7.892 7.892.001 4.36-3.532 7.892-7.892 7.892zm33.926 0h-9.4c-4.36 0-7.892-3.533-7.892-7.892 0-4.36 3.533-7.892 7.892-7.892h9.4c4.36 0 7.892 3.533 7.892 7.892 0 4.36-3.533 7.892-7.892 7.892zm72.639 0h-9.4c-4.36 0-7.892-3.533-7.892-7.892 0-4.36 3.533-7.892 7.892-7.892h9.4c4.36 0 7.892 3.533 7.892 7.892.001 4.36-3.532 7.892-7.892 7.892zm16.633-7.892c0-4.36 3.533-7.892 7.892-7.892h9.398c4.36 0 7.895 3.533 7.895 7.892 0 4.36-3.535 7.892-7.895 7.892h-9.398c-4.36 0-7.892-3.532-7.892-7.892zm191.701 85.701h-111.038c-4.357 0-7.892-3.533-7.892-7.892 0-4.36 3.535-7.892 7.892-7.892h111.038c4.357 0 7.892 3.533 7.892 7.892s-3.535 7.892-7.892 7.892zm0-36.024h-175.213c-4.36 0-7.892-3.533-7.892-7.892s3.533-7.892 7.892-7.892h175.213c4.357 0 7.892 3.533 7.892 7.892s-3.535 7.892-7.892 7.892zm0-41.785h-9.398c-4.357 0-7.892-3.533-7.892-7.892 0-4.36 3.535-7.892 7.892-7.892h9.398c4.357 0 7.892 3.533 7.892 7.892 0 4.36-3.535 7.892-7.892 7.892z"/></g></g></svg>