<svg id="Layer_1" enable-background="new 0 0 66 66" height="512" viewBox="0 0 66 66" width="512" xmlns="http://www.w3.org/2000/svg"><g><path d="m44.44 25.49c-.83 0-1.5.67-1.5 1.5s.67 1.5 1.5 1.5 1.5-.67 1.5-1.5-.67-1.5-1.5-1.5z"/><path d="m53.15 15.5h-40.3c-.42 2.42-2.34 4.34-4.76 4.76v13.46c2.43.42 4.34 2.34 4.76 4.76h40.3c.42-2.42 2.34-4.34 4.76-4.76v-13.45c-2.42-.42-4.34-2.34-4.76-4.77zm-31.6 14.99c-1.93 0-3.5-1.57-3.5-3.5s1.57-3.5 3.5-3.5 3.5 1.57 3.5 3.5-1.57 3.5-3.5 3.5zm11.45-4.49c2.23 0 4.04 1.68 4.04 3.75 0 1.74-1.3 3.2-3.04 3.62v.96c0 .55-.45 1-1 1s-1-.45-1-1v-.96c-1.75-.42-3.04-1.87-3.04-3.62 0-.55.45-1 1-1s1 .45 1 1c0 .96.92 1.75 2.04 1.75s2.04-.78 2.04-1.75-.91-1.75-2.04-1.75c-2.23 0-4.04-1.68-4.04-3.75 0-1.75 1.3-3.2 3.04-3.62v-.96c0-.55.45-1 1-1s1 .45 1 1v.96c1.75.42 3.04 1.87 3.04 3.62 0 .55-.45 1-1 1s-1-.45-1-1c0-.96-.92-1.75-2.04-1.75s-2.04.78-2.04 1.75c0 .96.91 1.75 2.04 1.75zm11.44 4.49c-1.93 0-3.5-1.57-3.5-3.5s1.57-3.5 3.5-3.5 3.5 1.57 3.5 3.5c.01 1.93-1.56 3.5-3.5 3.5z"/><path d="m21.55 25.49c-.83 0-1.5.67-1.5 1.5s.67 1.5 1.5 1.5 1.5-.67 1.5-1.5-.67-1.5-1.5-1.5z"/><path d="m62.25 9.17h-58.5c-1.1 0-2 .9-2 2v31.65c0 1.1.9 2 2 2h58.5c1.1 0 2-.9 2-2v-31.65c0-1.1-.9-2-2-2zm-2.34 25.47c0 .55-.45 1-1 1-2.12 0-3.85 1.73-3.85 3.85 0 .55-.45 1-1 1h-42.12c-.55 0-1-.45-1-1 0-2.12-1.73-3.85-3.85-3.85-.55 0-1-.45-1-1v-15.29c0-.55.45-1 1-1 2.12 0 3.85-1.73 3.85-3.85 0-.55.45-1 1-1h42.13c.55 0 1 .45 1 1 0 2.12 1.73 3.85 3.85 3.85.55 0 1 .45 1 1v15.29z"/><path d="m3.75 52.82c-.73 0-1.41-.21-2-.56v2.56c0 1.1.9 2 2 2h58.5c1.1 0 2-.9 2-2v-2.56c-.59.34-1.27.56-2 .56z"/><path d="m3.75 46.82c-.73 0-1.41-.21-2-.56v2.56c0 1.1.9 2 2 2h58.5c1.1 0 2-.9 2-2v-2.56c-.59.34-1.27.56-2 .56z"/></g></svg>